<?xml version="1.0" encoding="UTF-8"?>
<svg width="355px" height="45px" viewBox="0 0 355 45" version="1.1" xmlns="http://www.w3.org/2000/svg" xmlns:xlink="http://www.w3.org/1999/xlink">
    <title>Artboard Copy</title>
    <g id="Artboard-Copy" stroke="none" stroke-width="1" fill="none" fill-rule="evenodd">
        <path d="M20.844,32 C22.332,32 23.076,31.208 23.076,29.624 L23.076,29.624 L23.076,9.176 C23.076,7.592 22.296,6.8 20.736,6.8 C19.152,6.8 18.36,7.592 18.36,9.176 L18.36,9.176 L18.36,23.828 L8.1,8.348 C7.404,7.316 6.456,6.8 5.256,6.8 L5.256,6.8 L4.752,6.8 C3.192,6.8 2.412,7.592 2.412,9.176 L2.412,9.176 L2.412,29.624 C2.412,31.208 3.192,32 4.752,32 C6.312,32 7.092,31.208 7.092,29.624 L7.092,29.624 L7.092,14.396 L17.604,30.452 C18.252,31.484 19.2,32 20.448,32 L20.448,32 L20.844,32 Z M35.208,32.396 C36.48,32.396 37.638,32.198 38.682,31.802 C39.726,31.406 40.656,30.764 41.472,29.876 C42.048,29.252 42.306,28.646 42.246,28.058 C42.186,27.47 41.88,26.984 41.328,26.6 C40.8,26.216 40.302,26.108 39.834,26.276 C39.366,26.444 38.856,26.804 38.304,27.356 C37.56,28.1 36.552,28.472 35.28,28.472 C34.128,28.472 33.174,28.178 32.418,27.59 C31.662,27.002 31.224,25.904 31.104,24.296 L31.104,24.296 L40.248,24.296 C41.016,24.296 41.604,24.152 42.012,23.864 C42.42,23.576 42.624,22.916 42.624,21.884 C42.624,20.588 42.324,19.358 41.724,18.194 C41.124,17.03 40.254,16.076 39.114,15.332 C37.974,14.588 36.588,14.216 34.956,14.216 C33.324,14.216 31.884,14.582 30.636,15.314 C29.388,16.046 28.41,17.09 27.702,18.446 C26.994,19.802 26.64,21.428 26.64,23.324 C26.64,26.372 27.432,28.646 29.016,30.146 C30.6,31.646 32.664,32.396 35.208,32.396 Z M38.16,20.84 L31.284,20.84 C31.524,19.736 31.944,18.944 32.544,18.464 C33.144,17.984 33.924,17.744 34.884,17.744 C36.636,17.744 37.728,18.776 38.16,20.84 L38.16,20.84 Z M53.928,32.396 C55.2,32.396 56.358,32.198 57.402,31.802 C58.446,31.406 59.376,30.764 60.192,29.876 C60.768,29.252 61.026,28.646 60.966,28.058 C60.906,27.47 60.6,26.984 60.048,26.6 C59.52,26.216 59.022,26.108 58.554,26.276 C58.086,26.444 57.576,26.804 57.024,27.356 C56.28,28.1 55.272,28.472 54,28.472 C52.848,28.472 51.894,28.178 51.138,27.59 C50.382,27.002 49.944,25.904 49.824,24.296 L49.824,24.296 L58.968,24.296 C59.736,24.296 60.324,24.152 60.732,23.864 C61.14,23.576 61.344,22.916 61.344,21.884 C61.344,20.588 61.044,19.358 60.444,18.194 C59.844,17.03 58.974,16.076 57.834,15.332 C56.694,14.588 55.308,14.216 53.676,14.216 C52.044,14.216 50.604,14.582 49.356,15.314 C48.108,16.046 47.13,17.09 46.422,18.446 C45.714,19.802 45.36,21.428 45.36,23.324 C45.36,26.372 46.152,28.646 47.736,30.146 C49.32,31.646 51.384,32.396 53.928,32.396 Z M56.88,20.84 L50.004,20.84 C50.244,19.736 50.664,18.944 51.264,18.464 C51.864,17.984 52.644,17.744 53.604,17.744 C55.356,17.744 56.448,18.776 56.88,20.84 L56.88,20.84 Z M67.248,32 C68.76,32 69.516,31.208 69.516,29.624 L69.516,29.624 L69.516,8.78 C69.516,7.196 68.76,6.404 67.248,6.404 C65.736,6.404 64.98,7.196 64.98,8.78 L64.98,8.78 L64.98,29.624 C64.98,31.208 65.736,32 67.248,32 Z M81.36,32.396 C82.632,32.396 83.79,32.198 84.834,31.802 C85.878,31.406 86.808,30.764 87.624,29.876 C88.2,29.252 88.458,28.646 88.398,28.058 C88.338,27.47 88.032,26.984 87.48,26.6 C86.952,26.216 86.454,26.108 85.986,26.276 C85.518,26.444 85.008,26.804 84.456,27.356 C83.712,28.1 82.704,28.472 81.432,28.472 C80.28,28.472 79.326,28.178 78.57,27.59 C77.814,27.002 77.376,25.904 77.256,24.296 L77.256,24.296 L86.4,24.296 C87.168,24.296 87.756,24.152 88.164,23.864 C88.572,23.576 88.776,22.916 88.776,21.884 C88.776,20.588 88.476,19.358 87.876,18.194 C87.276,17.03 86.406,16.076 85.266,15.332 C84.126,14.588 82.74,14.216 81.108,14.216 C79.476,14.216 78.036,14.582 76.788,15.314 C75.54,16.046 74.562,17.09 73.854,18.446 C73.146,19.802 72.792,21.428 72.792,23.324 C72.792,26.372 73.584,28.646 75.168,30.146 C76.752,31.646 78.816,32.396 81.36,32.396 Z M84.312,20.84 L77.436,20.84 C77.676,19.736 78.096,18.944 78.696,18.464 C79.296,17.984 80.076,17.744 81.036,17.744 C82.788,17.744 83.88,18.776 84.312,20.84 L84.312,20.84 Z M98.712,32.36 C100.848,32.36 102.606,31.916 103.986,31.028 C105.366,30.14 106.056,28.796 106.056,26.996 C106.056,25.46 105.546,24.23 104.526,23.306 C103.506,22.382 102,21.692 100.008,21.236 C99,20.996 98.256,20.786 97.776,20.606 C97.296,20.426 96.984,20.24 96.84,20.048 C96.696,19.856 96.624,19.64 96.624,19.4 C96.624,19.064 96.768,18.77 97.056,18.518 C97.344,18.266 97.884,18.14 98.676,18.14 C99.06,18.14 99.432,18.17 99.792,18.23 C100.152,18.29 100.512,18.392 100.872,18.536 C101.568,18.8 102.162,18.926 102.654,18.914 C103.146,18.902 103.596,18.632 104.004,18.104 C104.412,17.576 104.562,17.036 104.454,16.484 C104.346,15.932 103.932,15.476 103.212,15.116 C101.844,14.492 100.308,14.18 98.604,14.18 C97.356,14.18 96.234,14.402 95.238,14.846 C94.242,15.29 93.456,15.914 92.88,16.718 C92.304,17.522 92.016,18.464 92.016,19.544 C92.016,21.176 92.49,22.4 93.438,23.216 C94.386,24.032 95.736,24.608 97.488,24.944 C98.616,25.16 99.462,25.358 100.026,25.538 C100.59,25.718 100.962,25.91 101.142,26.114 C101.322,26.318 101.412,26.552 101.412,26.816 C101.412,27.44 101.232,27.866 100.872,28.094 C100.512,28.322 99.876,28.436 98.964,28.436 C97.788,28.436 96.732,28.184 95.796,27.68 C95.124,27.296 94.542,27.098 94.05,27.086 C93.558,27.074 93.084,27.308 92.628,27.788 C92.172,28.292 91.968,28.826 92.016,29.39 C92.064,29.954 92.424,30.452 93.096,30.884 C93.936,31.412 94.83,31.79 95.778,32.018 C96.726,32.246 97.704,32.36 98.712,32.36 Z M121.716,32 C123.228,32 123.984,31.208 123.984,29.624 L123.984,29.624 L123.984,21.056 C123.984,18.8 123.414,17.096 122.274,15.944 C121.134,14.792 119.664,14.216 117.864,14.216 C116.832,14.216 115.944,14.456 115.2,14.936 C114.456,15.416 113.916,15.968 113.58,16.592 L113.58,16.592 L113.58,8.78 C113.58,7.196 112.824,6.404 111.312,6.404 C109.8,6.404 109.044,7.196 109.044,8.78 L109.044,8.78 L109.044,29.624 C109.044,31.208 109.8,32 111.312,32 C112.824,32 113.58,31.208 113.58,29.624 L113.58,29.624 L113.58,22.424 C113.58,21.008 113.874,19.97 114.462,19.31 C115.05,18.65 115.8,18.32 116.712,18.32 C117.552,18.32 118.218,18.644 118.71,19.292 C119.202,19.94 119.448,20.9 119.448,22.172 L119.448,22.172 L119.448,29.624 C119.448,31.208 120.204,32 121.716,32 Z M154.98,32 C155.772,32 156.294,31.736 156.546,31.208 C156.798,30.68 156.72,30.008 156.312,29.192 L156.312,29.192 L152.568,21.488 C154.272,21.176 155.61,20.45 156.582,19.31 C157.554,18.17 158.04,16.472 158.04,14.216 C158.04,12.392 157.722,10.94 157.086,9.86 C156.45,8.78 155.55,8 154.386,7.52 C153.222,7.04 151.848,6.8 150.264,6.8 L150.264,6.8 L140.976,6.8 C139.392,6.8 138.6,7.592 138.6,9.176 L138.6,9.176 L138.6,29.624 C138.6,31.208 139.38,32 140.94,32 C142.5,32 143.28,31.208 143.28,29.624 L143.28,29.624 L143.28,21.704 L147.78,21.704 L151.452,30.2 C151.98,31.4 152.904,32 154.224,32 L154.224,32 L154.98,32 Z M149.616,17.348 L143.28,17.348 L143.28,11.12 L149.616,11.12 C150.696,11.12 151.548,11.36 152.172,11.84 C152.796,12.32 153.108,13.112 153.108,14.216 C153.108,15.344 152.796,16.148 152.172,16.628 C151.548,17.108 150.696,17.348 149.616,17.348 L149.616,17.348 Z M168.912,32.396 C170.544,32.396 171.996,32.024 173.268,31.28 C174.54,30.536 175.542,29.48 176.274,28.112 C177.006,26.744 177.372,25.148 177.372,23.324 C177.372,21.476 177.006,19.874 176.274,18.518 C175.542,17.162 174.54,16.106 173.268,15.35 C171.996,14.594 170.544,14.216 168.912,14.216 C167.304,14.216 165.858,14.594 164.574,15.35 C163.29,16.106 162.282,17.162 161.55,18.518 C160.818,19.874 160.452,21.476 160.452,23.324 C160.452,25.148 160.818,26.744 161.55,28.112 C162.282,29.48 163.29,30.536 164.574,31.28 C165.858,32.024 167.304,32.396 168.912,32.396 Z M168.912,28.292 C167.76,28.292 166.83,27.866 166.122,27.014 C165.414,26.162 165.06,24.932 165.06,23.324 C165.06,21.692 165.414,20.45 166.122,19.598 C166.83,18.746 167.76,18.32 168.912,18.32 C170.064,18.32 171.006,18.746 171.738,19.598 C172.47,20.45 172.836,21.692 172.836,23.324 C172.836,24.932 172.47,26.162 171.738,27.014 C171.006,27.866 170.064,28.292 168.912,28.292 Z M183.168,39.02 C184.368,39.02 185.346,38.834 186.102,38.462 C186.858,38.09 187.482,37.538 187.974,36.806 C188.466,36.074 188.904,35.168 189.288,34.088 L189.288,34.088 L195.192,17.384 C195.48,16.544 195.48,15.878 195.192,15.386 C194.904,14.894 194.376,14.648 193.608,14.648 C192.24,14.648 191.34,15.296 190.908,16.592 L190.908,16.592 L187.704,26.528 L184.248,16.556 C183.816,15.284 182.916,14.648 181.548,14.648 L181.548,14.648 L181.26,14.648 C180.564,14.648 180.096,14.894 179.856,15.386 C179.616,15.878 179.652,16.544 179.964,17.384 L179.964,17.384 L185.724,31.964 L185.436,32.756 C185.22,33.308 185.022,33.746 184.842,34.07 C184.662,34.394 184.416,34.622 184.104,34.754 C183.792,34.886 183.312,34.952 182.664,34.952 C182.448,34.952 182.232,34.946 182.016,34.934 C181.8,34.922 181.584,34.904 181.368,34.88 C180.504,34.76 180.072,35.372 180.072,36.716 C180.072,37.388 180.258,37.928 180.63,38.336 C181.002,38.744 181.56,38.972 182.304,39.02 L182.304,39.02 L183.168,39.02 Z M210.744,32 C211.152,32 211.356,31.76 211.356,31.28 L211.356,31.28 L211.356,19.256 L220.824,19.256 C223.224,19.256 225,18.704 226.152,17.6 C227.304,16.496 227.88,14.96 227.88,12.992 C227.88,11.048 227.304,9.524 226.152,8.42 C225,7.316 223.224,6.764 220.824,6.764 L220.824,6.764 L210.852,6.764 C210.372,6.764 210.132,7.004 210.132,7.484 L210.132,7.484 L210.132,31.28 C210.132,31.76 210.336,32 210.744,32 Z M220.824,17.996 L211.356,17.996 L211.356,8.024 L220.824,8.024 C222.816,8.024 224.28,8.426 225.216,9.23 C226.152,10.034 226.62,11.288 226.62,12.992 C226.62,14.696 226.152,15.956 225.216,16.772 C224.28,17.588 222.816,17.996 220.824,17.996 L220.824,17.996 Z M239.148,32.396 C240.66,32.396 242.004,32.012 243.18,31.244 C244.356,30.476 245.28,29.408 245.952,28.04 C246.624,26.672 246.96,25.112 246.96,23.36 C246.96,21.608 246.624,20.06 245.952,18.716 C245.28,17.372 244.356,16.31 243.18,15.53 C242.004,14.75 240.66,14.36 239.148,14.36 C237.636,14.36 236.292,14.75 235.116,15.53 C233.94,16.31 233.016,17.372 232.344,18.716 C231.672,20.06 231.336,21.608 231.336,23.36 C231.336,25.112 231.672,26.672 232.344,28.04 C233.016,29.408 233.94,30.476 235.116,31.244 C236.292,32.012 237.636,32.396 239.148,32.396 Z M239.148,31.136 C237.876,31.136 236.742,30.812 235.746,30.164 C234.75,29.516 233.97,28.604 233.406,27.428 C232.842,26.252 232.56,24.896 232.56,23.36 C232.56,21.824 232.842,20.474 233.406,19.31 C233.97,18.146 234.75,17.24 235.746,16.592 C236.742,15.944 237.876,15.62 239.148,15.62 C240.42,15.62 241.548,15.944 242.532,16.592 C243.516,17.24 244.29,18.146 244.854,19.31 C245.418,20.474 245.7,21.824 245.7,23.36 C245.7,24.896 245.418,26.252 244.854,27.428 C244.29,28.604 243.516,29.516 242.532,30.164 C241.548,30.812 240.42,31.136 239.148,31.136 Z M252.432,32 C252.864,32 253.08,31.76 253.08,31.28 L253.08,31.28 L253.08,21.236 C253.08,20.252 253.356,19.334 253.908,18.482 C254.46,17.63 255.198,16.94 256.122,16.412 C257.046,15.884 258.084,15.62 259.236,15.62 C259.428,15.62 259.62,15.632 259.812,15.656 C260.004,15.68 260.184,15.692 260.352,15.692 C260.856,15.692 261.108,15.476 261.108,15.044 C261.108,14.708 260.946,14.51 260.622,14.45 C260.298,14.39 259.836,14.36 259.236,14.36 C257.844,14.36 256.596,14.708 255.492,15.404 C254.388,16.1 253.584,16.976 253.08,18.032 L253.08,18.032 L253.08,15.512 C253.08,15.032 252.864,14.792 252.432,14.792 C252,14.792 251.784,15.032 251.784,15.512 L251.784,15.512 L251.784,31.28 C251.784,31.76 252,32 252.432,32 Z M271.728,32.396 C272.376,32.396 272.946,32.342 273.438,32.234 C273.93,32.126 274.176,31.904 274.176,31.568 C274.176,31.208 274.038,31.022 273.762,31.01 C273.486,30.998 273.156,31.016 272.772,31.064 C272.604,31.088 272.43,31.112 272.25,31.136 C272.07,31.16 271.896,31.172 271.728,31.172 C270.672,31.172 269.898,30.95 269.406,30.506 C268.914,30.062 268.668,29.24 268.668,28.04 L268.668,28.04 L268.668,16.052 L273.456,16.052 C273.936,16.052 274.176,15.836 274.176,15.404 C274.176,14.996 273.936,14.792 273.456,14.792 L273.456,14.792 L268.668,14.792 L268.668,9.068 C268.668,8.588 268.464,8.348 268.056,8.348 C267.648,8.348 267.444,8.588 267.444,9.068 L267.444,9.068 L267.444,14.792 L264.24,14.792 C263.76,14.792 263.52,14.996 263.52,15.404 C263.52,15.836 263.76,16.052 264.24,16.052 L264.24,16.052 L267.444,16.052 L267.444,28.04 C267.444,29.648 267.792,30.776 268.488,31.424 C269.184,32.072 270.264,32.396 271.728,32.396 Z M281.268,32 C281.676,32 281.88,31.76 281.88,31.28 L281.88,31.28 L281.88,16.052 L286.92,16.052 C287.4,16.052 287.64,15.836 287.64,15.404 C287.64,14.996 287.4,14.792 286.92,14.792 L286.92,14.792 L281.88,14.792 L281.88,11.192 C281.88,9.68 282.24,8.6 282.96,7.952 C283.68,7.304 284.544,6.98 285.552,6.98 L285.552,6.98 L286.056,6.98 C286.2,6.98 286.38,7.004 286.596,7.052 C286.86,7.1 287.094,7.094 287.298,7.034 C287.502,6.974 287.616,6.836 287.64,6.62 C287.688,6.284 287.502,6.056 287.082,5.936 C286.662,5.816 286.152,5.756 285.552,5.756 C284.808,5.756 284.058,5.918 283.302,6.242 C282.546,6.566 281.916,7.124 281.412,7.916 C280.908,8.708 280.656,9.8 280.656,11.192 L280.656,11.192 L280.656,14.792 L277.668,14.792 C277.188,14.792 276.948,14.996 276.948,15.404 C276.948,15.836 277.188,16.052 277.668,16.052 L277.668,16.052 L280.656,16.052 L280.656,31.28 C280.656,31.76 280.86,32 281.268,32 Z M298.224,32.396 C299.736,32.396 301.08,32.012 302.256,31.244 C303.432,30.476 304.356,29.408 305.028,28.04 C305.7,26.672 306.036,25.112 306.036,23.36 C306.036,21.608 305.7,20.06 305.028,18.716 C304.356,17.372 303.432,16.31 302.256,15.53 C301.08,14.75 299.736,14.36 298.224,14.36 C296.712,14.36 295.368,14.75 294.192,15.53 C293.016,16.31 292.092,17.372 291.42,18.716 C290.748,20.06 290.412,21.608 290.412,23.36 C290.412,25.112 290.748,26.672 291.42,28.04 C292.092,29.408 293.016,30.476 294.192,31.244 C295.368,32.012 296.712,32.396 298.224,32.396 Z M298.224,31.136 C296.952,31.136 295.818,30.812 294.822,30.164 C293.826,29.516 293.046,28.604 292.482,27.428 C291.918,26.252 291.636,24.896 291.636,23.36 C291.636,21.824 291.918,20.474 292.482,19.31 C293.046,18.146 293.826,17.24 294.822,16.592 C295.818,15.944 296.952,15.62 298.224,15.62 C299.496,15.62 300.624,15.944 301.608,16.592 C302.592,17.24 303.366,18.146 303.93,19.31 C304.494,20.474 304.776,21.824 304.776,23.36 C304.776,24.896 304.494,26.252 303.93,27.428 C303.366,28.604 302.592,29.516 301.608,30.164 C300.624,30.812 299.496,31.136 298.224,31.136 Z M311.508,32 C311.916,32 312.12,31.76 312.12,31.28 L312.12,31.28 L312.12,6.548 C312.12,6.068 311.916,5.828 311.508,5.828 C311.076,5.828 310.86,6.068 310.86,6.548 L310.86,6.548 L310.86,31.28 C310.86,31.76 311.076,32 311.508,32 Z M319.176,10.616 C319.512,10.616 319.794,10.496 320.022,10.256 C320.25,10.016 320.364,9.728 320.364,9.392 C320.364,9.056 320.25,8.774 320.022,8.546 C319.794,8.318 319.512,8.204 319.176,8.204 C318.864,8.204 318.582,8.318 318.33,8.546 C318.078,8.774 317.952,9.056 317.952,9.392 C317.952,9.728 318.078,10.016 318.33,10.256 C318.582,10.496 318.864,10.616 319.176,10.616 Z M319.176,32 C319.584,32 319.788,31.76 319.788,31.28 L319.788,31.28 L319.788,15.512 C319.788,15.032 319.584,14.792 319.176,14.792 C318.768,14.792 318.564,15.032 318.564,15.512 L318.564,15.512 L318.564,31.28 C318.564,31.76 318.768,32 319.176,32 Z M333.036,32.396 C334.548,32.396 335.892,32.012 337.068,31.244 C338.244,30.476 339.168,29.408 339.84,28.04 C340.512,26.672 340.848,25.112 340.848,23.36 C340.848,21.608 340.512,20.06 339.84,18.716 C339.168,17.372 338.244,16.31 337.068,15.53 C335.892,14.75 334.548,14.36 333.036,14.36 C331.524,14.36 330.18,14.75 329.004,15.53 C327.828,16.31 326.904,17.372 326.232,18.716 C325.56,20.06 325.224,21.608 325.224,23.36 C325.224,25.112 325.56,26.672 326.232,28.04 C326.904,29.408 327.828,30.476 329.004,31.244 C330.18,32.012 331.524,32.396 333.036,32.396 Z M333.036,31.136 C331.764,31.136 330.63,30.812 329.634,30.164 C328.638,29.516 327.858,28.604 327.294,27.428 C326.73,26.252 326.448,24.896 326.448,23.36 C326.448,21.824 326.73,20.474 327.294,19.31 C327.858,18.146 328.638,17.24 329.634,16.592 C330.63,15.944 331.764,15.62 333.036,15.62 C334.308,15.62 335.436,15.944 336.42,16.592 C337.404,17.24 338.178,18.146 338.742,19.31 C339.306,20.474 339.588,21.824 339.588,23.36 C339.588,24.896 339.306,26.252 338.742,27.428 C338.178,28.604 337.404,29.516 336.42,30.164 C335.436,30.812 334.308,31.136 333.036,31.136 Z M350.544,32.726 C351.38,32.726 352.084,32.44 352.656,31.868 C353.228,31.296 353.514,30.592 353.514,29.756 C353.514,28.876 353.228,28.15 352.656,27.578 C352.084,27.006 351.38,26.72 350.544,26.72 C349.708,26.72 348.993,27.006 348.399,27.578 C347.805,28.15 347.508,28.876 347.508,29.756 C347.508,30.592 347.805,31.296 348.399,31.868 C348.993,32.44 349.708,32.726 350.544,32.726 Z" id="NeeleshRoyPortfolio." fill="#FFFFFF" fill-rule="nonzero"></path>
    </g>
</svg>